<svg width="207" height="206" xmlns="http://www.w3.org/2000/svg" xmlns:xlink="http://www.w3.org/1999/xlink" xml:space="preserve" overflow="hidden"><g transform="translate(-2416 -443)"><path d="M2418.5 479.001C2418.5 460.499 2433.5 445.5 2452 445.5L2587 445.5C2605.5 445.5 2620.5 460.499 2620.5 479.001L2620.5 612.999C2620.5 631.501 2605.5 646.5 2587 646.5L2452 646.5C2433.5 646.5 2418.5 631.501 2418.5 612.999Z" stroke="#FF0000" stroke-width="4.58333" stroke-miterlimit="8" fill="#FF0000" fill-rule="evenodd"/><g><g><g><path d="M73.9373 62.1832 60.9603 41.4997C60.7281 41.1206 60.3147 40.8905 59.8702 40.893 59.4238 40.8928 59.0085 41.1219 58.7707 41.4997L54.979 47.5853 63.1121 60.7423C63.8004 61.7831 63.9484 63.0907 63.5102 64.2591L72.705 64.2591C73.4579 64.2967 74.0988 63.7168 74.1364 62.9639 74.1501 62.6895 74.0807 62.4175 73.9373 62.1832Z" stroke="#FFFFFF" stroke-width="0.947914" fill="#FFFFFF" transform="matrix(1 0 0 1 2474 500)"/><path d="M59.8134 62.3064 39.1962 28.7597C38.9317 28.418 38.5191 28.224 38.0872 28.2384L37.9166 28.2384 37.7459 28.2384C37.314 28.224 36.9014 28.418 36.6369 28.7597L16.0197 62.3064C15.7277 62.715 15.6875 63.2523 15.9155 63.6998 16.1454 64.1053 16.6013 64.3276 17.0625 64.2591L58.7707 64.2591C59.2318 64.3276 59.6877 64.1053 59.9176 63.6998 60.1456 63.2523 60.1054 62.715 59.8134 62.3064ZM41.367 44.4761 38.0872 47.3957 34.8074 44.4761 29.3853 47.7559 37.9166 33.9258 46.2203 47.3957Z" stroke="#FFFFFF" stroke-width="0.947914" fill="#FFFFFF" transform="matrix(1 0 0 1 2474 500)"/><path d="M28.4374 30.3332C28.4374 31.9038 27.1642 33.177 25.5937 33.177 24.0231 33.177 22.7499 31.9038 22.7499 30.3332 22.7499 28.7627 24.0231 27.4895 25.5937 27.4895 27.1642 27.4895 28.4374 28.7627 28.4374 30.3332Z" stroke="#FFFFFF" stroke-width="0.947914" fill="#FFFFFF" transform="matrix(1 0 0 1 2474 500)"/><path d="M13.2708 70.1456 13.2708 22.7499 77.7289 22.7499 77.7289 70.1456ZM83.4164 75.8331 83.4164 17.0625 7.58331 17.0625 7.58331 75.8331Z" stroke="#FFFFFF" stroke-width="0.947914" fill="#FFFFFF" transform="matrix(1 0 0 1 2474 500)"/></g></g></g></g></svg>