<svg width="76" height="75" xmlns="http://www.w3.org/2000/svg" xmlns:xlink="http://www.w3.org/1999/xlink" xml:space="preserve" overflow="hidden"><g transform="translate(-620 -121)"><path d="M60.9375 51.25 50.2422 34.2031C50.0508 33.8907 49.7101 33.7011 49.3438 33.7031 48.9758 33.703 48.6335 33.8918 48.4375 34.2031L45.3125 39.2188 52.0156 50.0625C52.5829 50.9203 52.7048 51.998 52.3438 52.9609L59.9219 52.9609C60.5424 52.992 61.0706 52.514 61.1016 51.8934 61.1129 51.6673 61.0557 51.4431 60.9375 51.25Z" stroke="#FF0000" stroke-width="0.78125" fill="#FF0000" transform="matrix(1.01333 0 0 1 620 121)"/><path d="M49.2969 51.3516 32.3047 23.7031C32.0866 23.4215 31.7466 23.2616 31.3906 23.2734L31.25 23.2734 31.1094 23.2734C30.7534 23.2616 30.4134 23.4215 30.1953 23.7031L13.2031 51.3516C12.9624 51.6884 12.9293 52.1312 13.1172 52.5 13.3067 52.8342 13.6824 53.0174 14.0625 52.9609L48.4375 52.9609C48.8176 53.0174 49.1933 52.8342 49.3828 52.5 49.5707 52.1312 49.5376 51.6884 49.2969 51.3516ZM34.0938 36.6562 31.3906 39.0625 28.6875 36.6562 24.2188 39.3594 31.25 27.9609 38.0938 39.0625Z" stroke="#FF0000" stroke-width="0.78125" fill="#FF0000" transform="matrix(1.01333 0 0 1 620 121)"/><path d="M23.4375 25C23.4375 26.2944 22.3882 27.3438 21.0938 27.3438 19.7993 27.3438 18.75 26.2944 18.75 25 18.75 23.7056 19.7993 22.6562 21.0938 22.6562 22.3882 22.6562 23.4375 23.7056 23.4375 25Z" stroke="#FF0000" stroke-width="0.78125" fill="#FF0000" transform="matrix(1.01333 0 0 1 620 121)"/><path d="M10.9375 57.8125 10.9375 18.75 64.0625 18.75 64.0625 57.8125ZM68.75 62.5 68.75 14.0625 6.25 14.0625 6.25 62.5Z" stroke="#FF0000" stroke-width="0.78125" fill="#FF0000" transform="matrix(1.01333 0 0 1 620 121)"/></g></svg>